<svg xmlns="http://www.w3.org/2000/svg" viewBox="370 180 100 230" role="img" aria-labelledby="title">
  <title>We Otzi isotipo</title>
  <g fill="#120f0c">
    <path d="M431.89,318.73v-49.12c0-6.13,5.11-11.1,11.4-11.1h8.77c6.3,0,11.4,4.97,11.4,11.1v49.12H431.89z"/>
    <path d="M444.32,255.86c0,0-0.63-20.1,0-26.76c0.12-1.25,0.42-3.19,0.68-4.41c0.09-0.43,0.61-2.22,0.61-2.22l1.39-2.96l1.62,2.86c0,0,0.07,1.73,0.55,4.54c0.53,3.06,0.83,5.45,1.09,6.95c0.44,2.54-0.85,3.93-1.78,5.52c-0.93,1.59-2.08,2.95-2.16,4.1c-0.15,2.15,1.61,4.08,2.76,4.37c1.65,0.42,1.08,3.62,1.08,8H444.32z"/>
    <path d="M405.28,209.99c7.29,0,10.93-3.51,10.93-10.53c0-7.02-3.64-10.53-10.93-10.53c-7.22,0-10.82,3.51-10.82,10.53C394.45,206.48,398.06,209.99,405.28,209.99"/>
    <path d="M447.19,209.99c7.22,0,10.82-3.51,10.82-10.53c0-7.02-3.61-10.53-10.82-10.53c-7.22,0-10.82,3.51-10.82,10.53C436.37,206.48,439.98,209.99,447.19,209.99"/>
    <path d="M453.05,264.04c-3.55,0-2.03,0.41-5.86,0.41c-1.93,0-1.17-0.82-3.16-0.82c-0.8,0-1.64-0.2-2.58-0.2c-0.36,0-3.78,1.43-5.08,1.43c-0.13,0-0.22,0.37-0.93,1.19c-2.09,2.41-3.55,19.42-3.55,22.57l-0.12,76.35c0,2.94-1.07,5.45-3.2,7.52c-2.28,2.08-4.82,3.12-7.62,3.12c-2.95,0-5.52-1.04-7.73-3.12c-2.14-2.08-3.2-4.59-3.2-7.52V261.04c0-2.94,0.33-5.57,2.15-7.83c2.79-3.46,7.6-3.04,13.03-3.25c0,0,0,0,0,0V232.1c0-3.79,0-5.01,0-9.41c0-0.11-0.01-2.77,0-2.88c-10.15,0.79-26.94,4.72-34.29,11.99c-8.32,8.03-12.48,17.77-12.48,29.23v103.93c0,11.39,4.16,21.14,12.48,29.23c8.17,8.1,18.19,12.15,30.04,12.15c11.71,0,21.72-4.05,30.04-12.15c8.32-8.17,12.48-17.91,12.48-29.23V276.1l-3.72-9.53c-0.05-2.2-0.1-1.12-1.35-2.96v1.1l-1.5-0.67H453.05z"/>
    <path d="M437.63,293.33v-24.68c0-1.15,1.04-2.09,2.31-2.09h0.37c0.66,0,1.18,0.51,1.13,1.11l-1.97,24.54c-0.07,0.84-0.85,1.07-1.78,1.07L437.63,293.33z"/>
  </g>
</svg>
