<svg xmlns="http://www.w3.org/2000/svg" viewBox="0 0 64 64">
  <!-- We Otzi favicon. Fondo obsidiana + "W." (Fraunces 500 convertida a path:
       no depende de webfonts, que los favicons SVG no cargan) + punto ambar. -->
  <rect width="64" height="64" rx="14" fill="#07080b"/>
  <path transform="translate(2.4150 47.0000) scale(0.022000 -0.022000)" fill="#eaf3f7" d="M1061 1089 1214 1067 953 221Q943 193 938.5 167.0Q934 141 934 105V64Q934 32 915.5 16.0Q897 0 871 0H522Q495 0 477.0 16.0Q459 32 459 64V105Q459 125 456.0 140.0Q453 155 443 189L151 1175Q141 1210 127.0 1226.0Q113 1242 87 1253L50 1268Q29 1277 19.5 1295.0Q10 1313 10 1335Q10 1365 30.0 1382.5Q50 1400 92 1400H652Q694 1400 714.0 1382.5Q734 1365 734 1335Q734 1289 691 1273L657 1262Q633 1254 627.5 1227.5Q622 1201 634 1157L904 224L757 122ZM1770 1334Q1770 1365 1790.5 1382.5Q1811 1400 1853 1400H2149Q2192 1400 2212.0 1382.5Q2232 1365 2232 1334Q2232 1311 2221.0 1297.0Q2210 1283 2182 1269L2154 1255Q2116 1236 2090.5 1202.5Q2065 1169 2047 1102L1812 221Q1800 178 1796.0 155.5Q1792 133 1792 105V64Q1792 32 1774.0 16.0Q1756 0 1730 0H1372Q1346 0 1328.0 16.0Q1310 32 1310 64V105Q1310 122 1307.0 137.5Q1304 153 1293 189L1014 1175Q1000 1223 990.5 1237.5Q981 1252 964 1259L929 1274Q907 1284 897.0 1298.0Q887 1312 887 1334Q887 1365 907.5 1382.5Q928 1400 970 1400H1510Q1552 1400 1572.0 1382.5Q1592 1365 1592 1334Q1592 1310 1580.5 1294.5Q1569 1279 1544 1269L1515 1259Q1491 1251 1485.0 1229.5Q1479 1208 1493 1156L1751 220L1617 122L1891 1122Q1905 1172 1893.0 1206.5Q1881 1241 1834 1262L1810 1273Q1789 1283 1779.5 1297.5Q1770 1312 1770 1334Z"/>
  <circle cx="51.5" cy="43.5" r="6.5" fill="#e8893b"/>
</svg>
